<?xml version="1.0" encoding="utf-8" ?>
<svg xmlns="http://www.w3.org/2000/svg" xmlns:xlink="http://www.w3.org/1999/xlink" width="512" height="512">
	<path d="M247.114 7.15195C261.576 6.3992 277.669 7.07066 291.984 9.84103L320.239 15.5575C422.291 41.0975 501.163 137.345 505.782 242.475L505.925 255.725C506.026 289.079 500.945 311.516 489.755 342C487.357 348.53 485.175 355.148 482.178 361.439L476.142 372.786C459.995 402.774 438.225 429.098 411.75 450.516C372.27 482.456 315.743 505.051 264.188 505.284C235.208 505.5 208.471 502.734 180.738 493.613L166.375 488.25C104.309 464.3 54.6227 416.167 27.4283 355.436L21.5346 340.642C-1.01744 280.753 1.34369 212.144 28.0826 153.93C30.4181 148.846 33.2637 144.046 35.9368 139.14L44.7813 123.5C82.9405 62.6878 141.425 23.6142 211.574 11.3023C223.359 9.23388 235.122 7.3576 247.114 7.15195ZM332.316 128.454C335.242 140.48 336.833 152.99 338.409 165.251L342.249 196L344.502 228.128L344.752 250.571C347.504 250.992 350.633 250.779 353.43 250.8L413.253 250.961C413.335 218.076 407.612 185.074 397.755 153.75L393.58 141.479C392.862 139.498 392.251 137.396 391.302 135.514L332.316 128.454ZM177.949 128.859L121.402 135.201C117.176 144.588 114.088 154.623 111.366 164.543L106.759 181.778C102.275 201.581 98.4041 229.755 99.1749 250.392C99.8943 250.52 100.583 250.526 101.812 250.814L157.028 250.81C158.395 250.81 167.018 251.079 167.415 250.677C167.524 220.178 170.35 189.817 174.473 159.621L179.459 129.646C179.682 128.465 178.841 128.627 177.949 128.859ZM100.717 262.622L99.5627 262.631C97.8828 265.624 101.238 292.271 101.705 296.5C104.344 320.378 110.48 352.121 120.702 374.299C123.943 375.287 127.801 375.505 131.171 376.119C146.761 378.962 162.381 381.018 178.187 382.107L179.125 382.116C179.441 381.161 178.984 380.459 178.809 379.5L174.423 351.042L167.705 279.589L167.541 262.733L100.717 262.622ZM345.463 262.625L335.623 363.625L332.763 382.255L344.094 381.368C356.917 380.279 369.515 378.312 382.142 375.843C384.841 375.316 388.01 375.148 390.602 374.352L391.375 372.815C404.578 341.817 413.502 297.231 413.265 262.749L351.75 262.701C349.842 262.689 347.669 262.432 345.463 262.625ZM124.789 387.374L136.478 412.03C153.191 442.725 178.795 473.235 212.719 484.748L220.925 487.318C205.611 470.843 195.859 443.785 189.633 422.763C188.777 419.871 182.003 394.731 181.875 394.61C181.258 394.025 174.833 393.85 173.617 393.719L146 390.544C142.158 390.01 138.176 389.745 134.375 389L124.789 387.374ZM386.135 387.625L329.851 394.59L326.25 410.375C318.164 440.955 309.902 462.547 291.102 487.574L291.625 487.708C299.199 484.956 306.398 482.244 313.482 478.312C342.789 462.045 365.717 433.363 379.796 403.15C380.37 401.917 386.678 387.932 386.63 387.654L386.135 387.625ZM289.403 24.717C305.548 39.3237 317.351 73.0205 323.789 93.0805L329.25 112.375C330.373 117.171 328.752 116.386 334.007 116.719L386.203 122.628C382.914 114.072 378.354 105.638 373.758 97.7143C354.986 65.3496 327.202 33.5971 289.403 24.717ZM220.694 25.0764C194.057 30.9035 162.379 60.251 147.586 83.5853L139.321 96.6996C135.77 102.438 127.995 115.908 125.706 122.375C126.228 122.551 126.29 122.484 126.807 122.383L181.883 116.366C183.157 109.764 185.474 103.173 187.442 96.7412C194.811 72.6577 204.464 44.1482 221.715 25.125C221.164 24.9284 221.215 24.9692 220.694 25.0764Z"/>
	<path fill="#51C1FF" d="M328.662 29.6835L328.935 29.7194C331.607 30.1727 334.384 31.3646 336.921 32.3021L357.844 41.2042C394.173 58.1828 425.53 85.4095 449.168 117.653L458.94 132.216C461.487 136.365 463.82 140.588 466.676 144.541C452.442 138.029 438.083 133.041 422.885 129.248L406.895 125.429C402.759 124.563 400.367 125.705 399.103 122.524L389.595 102.017C376.78 77.3441 360.313 54.4341 338.63 36.804C335.42 34.1945 331.963 32.1284 328.662 29.6835Z"/>
	<path fill="#51C1FF" d="M181.947 30.875L182.691 30.8333C181.963 31.7884 179.34 32.8891 178.222 33.6942C154.345 50.8863 135.924 77.8524 122.189 103.563L114.027 120.75C113.512 121.977 113.542 123.459 112.088 123.803L97.2146 126.918C80.37 130.834 61.054 136.311 45.625 144.47L45.3076 144.039C53.2531 131.751 61.3185 119.153 70.5035 107.742C96.2569 75.7464 132.481 47.0331 171.903 33.7234L181.947 30.875Z"/>
	<path fill="#51C1FF" d="M42.282 360.597C57.5916 369.372 73.4528 375.135 90.4703 379.689L105.5 383.553C111.697 385.121 110.873 383.644 113.264 389.9C125.546 422.036 147.753 457.381 175.479 477.453L182.076 481.871C175.721 479.906 169.263 477.041 163.147 474.417C124.725 457.933 91.629 432.105 66.4063 398.596C57.3344 386.544 49.8899 373.577 42.282 360.597Z"/>
	<path fill="#51C1FF" d="M469.561 360.625L460.519 376.957C427.912 431 386.518 461.309 328.875 482.423L328.306 482.363C329.929 480.737 332.528 479.387 334.426 478.06L343.909 470.822C366.371 452.346 383.319 424.187 394.933 398.058L399.172 388.205C400.192 385.522 399.451 384.985 402.248 384.43L434.356 375.999C446.438 372.163 458.784 367.353 469.561 360.625Z"/>
	<path fill="#51C1FF" d="M448.894 262.732L494.497 262.892C493.194 287.368 489.867 312.718 479.495 335.18C473.239 348.727 452.699 356.781 439.734 361.565L404.382 372.015C415.516 347.137 422.032 306.954 423.735 280.491L424.561 262.747L448.894 262.732Z"/>
	<path fill="#51C1FF" d="M18.495 262.875L87.5613 262.838C87.5473 287.556 92.4561 320.196 98.4974 343.79L103.562 360.675C104.7 364.06 106.434 367.726 106.991 371.239L106.375 371.389C87.3348 368.084 60.9138 358.709 44.9822 349.004C36.4806 343.825 33.8955 339.636 30.3531 330.564C23.0519 311.865 20.0738 290.937 18.2135 271.043L17.7241 265.258C17.6728 264.538 17.4811 263.666 17.7763 262.993L18.495 262.875Z"/>
	<path fill="#51C1FF" d="M404.002 136.509C422.458 140.483 441.472 145.555 458.649 153.54C473.022 160.221 475.47 163.289 480.894 178.119C487.923 197.334 492.138 217.437 493.748 237.825L494.192 251.207L424.774 250.813C424.357 250.28 424.589 247.424 424.584 246.627L423.106 217.43C420.08 192.192 413.668 160.448 404.002 136.509Z"/>
	<path fill="#51C1FF" d="M106.824 136.875L107.875 136.707C108.03 137.25 107.978 137.173 107.802 137.674C98.9654 162.82 93.1608 187.854 89.9146 214.264L87.4406 250.882L19.1875 250.82C18.4772 250.483 18.3391 250.547 17.7833 250.125L19.1519 230.856C20.9918 214.683 24.3234 198.491 29.3901 183.009C36.1841 162.249 41.2317 157.967 60.9706 150.23C75.8422 144.402 91.2627 140.348 106.824 136.875Z"/>
	<path fill="#51C1FF" d="M254.789 19.1017C257.218 19.1761 259.682 19.1676 262.077 19.6175C280.579 23.0931 292.119 45.8298 299.082 61.107C305.995 76.2756 314.979 99.1024 317.857 115.759L257.688 114.446L194.402 115.385C195.097 113.597 195.361 111.734 195.842 109.883L199.13 97.9424C206.772 72.5949 224.052 20.9801 254.789 19.1017Z"/>
	<path fill="#51C1FF" d="M194.254 395.043C195.066 395.057 196.103 395.191 196.939 395.209L219.944 395.901C222.041 396.038 224.089 396.438 226.191 396.467L287.925 396.471C290.773 396.447 293.464 395.999 296.272 395.851L317.8 395.251C317.126 396.942 316.968 398.964 316.516 400.75L313.405 412.192C308.136 431.178 302.457 450.005 291.95 466.861C270.384 500.961 243.224 504.148 220.415 467.406C210.885 452.054 204.725 434.575 199.911 417.238L194.254 395.043Z"/>
	<path fill="#51C1FF" d="M222.848 262.732L325.282 262.724C327.63 262.728 331.024 262.304 333.271 262.846L331.47 299.875L325.2 355.948L320.373 383.292L288.548 384.717L191.405 383.288C190.857 382.128 190.814 380.484 190.605 379.211L188.979 369.39C184.358 342.359 182.028 315.183 179.67 287.892C178.95 279.553 179.873 271.101 178.97 262.742L222.848 262.732Z"/>
	<path fill="#51C1FF" d="M237.766 126.204L303.902 127.087C309.503 127.384 315.034 127.194 320.62 127.909C321.108 128.556 321.171 130.1 321.291 130.908L330.766 197.089L333.464 250.614C332.732 251.036 330.923 250.791 330.021 250.797L274.249 250.831L199.981 250.84C197.59 250.841 179.833 251.255 178.804 250.753C179.105 229.158 180.69 207.671 182.994 186.202L190.1 134.976C190.524 132.405 190.718 129.729 191.418 127.22L237.766 126.204Z"/>
</svg>
